<svg id="Capa_1" data-name="Capa 1" xmlns="http://www.w3.org/2000/svg" viewBox="0 0 364.88 652.15"><defs><style>.cls-1{fill:#cf3339;}</style></defs><path class="cls-1" d="M286.84,433.51c-16-46.15-34.5-75.71-82.64-98.78-1.61-.72-4-1.44-4-4.33.8-.72,2.4-1.44,3.21-2.16,29.68-16.59,65-48.31,77-78.6,8.83-18.74,10.43-38.93,4-58.4-1.6-4.33-1.6-8.65-2.4-13-7.23-40.38-40.93-76.43-83.45-90.13C174.51,80.2,133.6,73,107.12,73a186.79,186.79,0,0,1-20.06-.72c-5.62,2.16-6.42,7.21-7.22,8.65.8,10.1,2.41,17.31,2.41,24.52,0,4.63,0,9.27,0,13.91L84,117.68l3.5,3.59L86,122.87l-3.73-3.24,0,5.62a2.29,2.29,0,0,1,4.19.4l.08-.25,2.16.14-.45,1.13a2.62,2.62,0,0,1-.37.78.8.8,0,0,1-.7.33,3.25,3.25,0,0,1-.36,0l-.95-.06.23-.8-2,1.65-1.79-2.21q.09,28.71.22,57.43l1.28-3,4.53,5.11-5.81-1c0,5.71,0,11.41,0,17.12l2.07,1.28-1.1,1.94-1-.49c0,23.13,0,46.27-.31,69.4,0,2.5,0,4.95,0,7.43a1.21,1.21,0,0,1,.85-.43L84,281l0,.94-.14,1.47-1.7.31c0,20.45-.2,40.52-1.59,61.11-.61,8.83-1.14,17.7-1.68,26.57l.92.17L79,373.69l-.16,0c-.41,7-.77,13.93-1.13,20.91l.27.5a3,3,0,0,1,.39.86,1,1,0,0,1-.48,1l-.32.34c-.32,6.27-.67,12.54-.93,18.81l.17.27-.18,0c-.27,6.38-.43,12.75-.64,19.12l1.66-1.73,1.09,7.07-2.88-1.24c-.46,15.16-.78,30.29-.79,45.35l1.27-.25,0,.4,1.48,0,.11,4.23-2.14.05-.06-2.18h0a1.94,1.94,0,0,1-.46.07,1.55,1.55,0,0,1-.21,0c.22,5,.4,9.95.59,14.92l.44-.66-.26-1.31,1.41-.28.33,1.6h0a3,3,0,0,1-.07,2.64,2.6,2.6,0,0,1-1.72.94c.47,12.44.86,24.87.86,37.31a31.51,31.51,0,0,1-2.41,6.49,32.56,32.56,0,0,0,12,18.47l.09-.06.12.21a35.94,35.94,0,0,0,3,2.28c15.24,7.94,29.68,10.1,46.53,10.1,80.23-5.77,142-35.33,154.05-111.76C290.85,456.58,291.65,445,286.84,433.51Zm-148-4.14-.56,1.63-2.76-5.58.81-.24c.8-.24,1.93-.47,2.62.25S139.58,427.25,138.85,429.37Zm-.62-186.81-2.18,3.17-1.18-3.93Zm-3.61,112.12,2.76,1.82-3,2.13Zm-15.49,105.1,2.9,1.73.26-.26.6.71.06.1.3.18-.1.17.54.91-1.55,1.62-.6-1.11,0,0L117.79,462Zm-1.62-70.86-.06-2.14,4.25-.11,0,2.13Zm4.31,49.34,7.32-.19-5.18,4.4Zm7-99.39-.48-.54-1.72-2.46,1.65-1.15,2.13,3Zm-.14-168-2.85,2.52-.07-1.51.72,0h-.72l-.11-2.52ZM125,415.46a3.59,3.59,0,0,1-.35.89l-.54,1.12-1.63-1.54,1.17-2.24.69.66C124.67,414.64,125.07,414.94,125,415.46Zm-1.69-105.27a2.89,2.89,0,0,1-.43.69.77.77,0,0,1-.6.25,1.78,1.78,0,0,1-.46-.07l-1-.18.45-1.09a2.66,2.66,0,0,1,.44-.69,1,1,0,0,1,1-.17l1,.17Zm-3.07-86.68.67.28,2.7,1.85-1.17,1.71-3.3-2.25Zm-1.28-72-1.54,1.36-2.6-2.93,1.54-1.37ZM112.69,352c0,.35-.07.85-.55,1a3,3,0,0,1-.78.17l-1.19.17.36-2.08,2.33-.25Zm1.21,126.26c.48.28.43.82.39,1.25a3.13,3.13,0,0,0,0,.44l0,1.11-1.46-.68a5.55,5.55,0,0,1-1.15-.62,1.14,1.14,0,0,1-.28-1.23c0-.09,0-.17,0-.24l.07-.94,1.28.44A5.88,5.88,0,0,1,113.9,478.24Zm-2.78-54.73-1.36.79-1.55-1.47,1-.67a3.41,3.41,0,0,1,.86-.4,1.05,1.05,0,0,1,1,.49l.69.65Zm3.21,112.71.43-1.62,1.39.37-.51,1.91h0a3.4,3.4,0,0,1-1.42,2.74,2.45,2.45,0,0,1-1.25.32,5,5,0,0,1-1.94-.47l-1.31-.57Zm-2-434.41,2.87,1.62-2.88,2.32Zm.52,159.78.81.28c.73.25,1.7.7,1.83,1.63.15,1.09-1,2-2.21,2.91l-1.41,1Zm1.62,14.5.42.42-2.18,3.19-3.2-2.19.25-.54c.53-1.2,1.22-1.88,2-2A3.06,3.06,0,0,1,114.5,276.09Zm-4-29.54.17.94c.12.4.26.88-.13,1.23a3.05,3.05,0,0,1-.73.48l-1.08.58-.41-2.14Zm-3.34-125.16,1,.07-.31,1.16a3.36,3.36,0,0,1-.37.77.83.83,0,0,1-.71.33,3.06,3.06,0,0,1-.35,0l-1-.06.32-1.16a2.62,2.62,0,0,1,.37-.78A1,1,0,0,1,107.13,121.39ZM95.88,263.73l5.73,3.92-6.44.51Zm-1.43-16.59-.39-2.07,1.21.09a3.29,3.29,0,0,1,.87.18,1,1,0,0,1,.54,1l.18.94-.94,0ZM102,303.08l2.89,3.74-1.65,1.38L100,304.61Zm.85,8.58.6-1.24,2.09.37-.57,1.07a2.61,2.61,0,0,1-.44.68.74.74,0,0,1-.59.26,1.58,1.58,0,0,1-.45-.08l-1-.17Zm1.92-229.09,2.32,2.87-1.56,1.26-2.32-2.87ZM103.12,200a3.23,3.23,0,0,1,.18-.86,1,1,0,0,1,1-.55l1-.18v1l0,.23a2.85,2.85,0,0,1-.17.87,1,1,0,0,1-1,.55l-1,.18v-1Zm-3.85-31.37,2.36-.52-.06.95c0,.4,0,.89-.42,1.14a3,3,0,0,1-.82.28l-1.18.3Zm1,14.19.71.47c.64.42,1.46,1.07,1.36,2s-1.41,1.7-2.79,2.23l-1.61.62Zm-6.56,13.77a2.53,2.53,0,0,1,4.68.29l.31.51-2.84,2.51L93.38,197Zm-5.38-96.26.56-.27,1.76-.31-.1,1c0,.36,0,.85-.47,1.08a3.24,3.24,0,0,1-.77.22l-1.17.24ZM88,117.4l-1.65.55,2.45-5,.69.5c.57.42,1.3,1.07,1.17,1.93S89.28,117,88,117.4Zm-1.63,47.48.13-2.16,1.15.45a3,3,0,0,1,.77.37,1,1,0,0,1,.3,1.05l-.06,1Zm1.33,121.51.18.94-.94.05-1.47-.14-.4-2.14,1.22.16a2.91,2.91,0,0,1,.87.17A1,1,0,0,1,87.69,286.39Zm-.5,88.6.69-.73.72,1a3.41,3.41,0,0,1,.4.86,1,1,0,0,1-.48,1l-.69.72-.72-1a3.11,3.11,0,0,1-.4-.86A1,1,0,0,1,87.19,375ZM84.75,207.68l2.15-.4-.16,1.23a3.15,3.15,0,0,1-.18.86,1,1,0,0,1-1,.55l-.94.17-.06-.93ZM79.27,375.25l1.07.58a2.51,2.51,0,0,1,.69.43,1,1,0,0,1,.17,1.05l-.16.94-2.14-.91Zm.89,134.12.39,2.9a6.06,6.06,0,0,1,.11,1.43c0,.53-.49.73-1,1-.21.09-.46.2-.76.36L77,516ZM80.06,531l-1.68-1.12,2.08-3.12,1.68,1.11ZM87,543.79l-.4.21a1.8,1.8,0,0,1-.83.29.72.72,0,0,1-.47-.16,5.65,5.65,0,0,1-.91-.92l-.89-1,.84-.42.21-.12a1.17,1.17,0,0,1,1.25-.22,5.26,5.26,0,0,1,1,.82L88,543.34Zm.94-65.44-.69-.64c-.37-.28-.76-.59-.67-1.1a3.31,3.31,0,0,1,.35-.89l.54-1.14,1.63,1.54Zm.83-158.68a5.24,5.24,0,0,1-.84-1,1.16,1.16,0,0,1,.19-1.24,1.36,1.36,0,0,0,.11-.2l.41-.85,1,.86a5.38,5.38,0,0,1,.92.87c.35.43.1.91-.1,1.29l-.19.39-.44,1Zm4.79,207.84-.26-.5,0,0,.16.54-1.49.77-.19-.93c-.11-.37-.25-.83.11-1.18a3.18,3.18,0,0,1,.69-.46l1-.59.43,2.08Zm.16-30.29c-.1.16-.18.33-.26.48-.23.47-.47.95-1,.95h0a7.24,7.24,0,0,1-1.5-.27L89.5,498l.44-.83a1.69,1.69,0,0,0,.13-.27c.17-.42.39-.95,1-1a6.57,6.57,0,0,1,1.53.1l.6.09,1.1.13ZM93,364.43l2.09-3.67,3.76,5.36Zm6.06-17.81.36-2.09,1.07.58a2.72,2.72,0,0,1,.69.42,1,1,0,0,1,.18,1.06l-.17.94-.89-.31Zm3.64,223.44-1.08-1.85,3.68-2.12,1.07,1.85Zm1-71.45L100.87,494l5.69-1.12Zm.47-118.94-2.07-2.95.43-.42a2.84,2.84,0,0,1,2.43-1.08,2.81,2.81,0,0,1,1.91,1.85l.25.54ZM110,364.34l.66.55c.54.45,1.24,1.16,1,2s-1.48,1.45-2.82,1.79l-1.67.44Zm4.07,182.94-.8,2.32c-.07.18-.12.37-.18.55a7.51,7.51,0,0,1-.62,1.58c-.29.48-.82.47-1.48.44-.27,0-.6,0-1,0l-2.16.06Zm2.31,17.21-4.66,3.91-2.52-5.78,6.53,1a.29.29,0,0,0,0-.09l-.19-1h1l.22,0a2.85,2.85,0,0,1,.81.15,1,1,0,0,1,.55.92l.19,1-1.19,0A3.77,3.77,0,0,1,116.39,564.49Zm3.34,9-2.53.05.24-.92c.08-.46.16-.95.65-1.11a3.34,3.34,0,0,1,1-.12l1.26-.07Zm.84-54.06a5.52,5.52,0,0,1,.09-.92l.15-1.06,2.41.64-.88,2.34-.84-.22C121.16,520.19,120.6,520.07,120.57,519.47Zm3,15.62-2,.39,0-1.19a2.79,2.79,0,0,1,.15-.8,1,1,0,0,1,.92-.55l.94-.18,0,.93Zm-.39-66.58,0-.94.11-1.39,2.08-.42-.14,1.21a2.73,2.73,0,0,1-.15.8,1,1,0,0,1-.92.55Zm3.1,70.17-1.39-.12-.42-2.08,1.21.14a2.73,2.73,0,0,1,.8.15,1,1,0,0,1,.55.92l.19.94Zm1.34-73L126,464.13l1.11-.6a3.33,3.33,0,0,1,.87-.4,1,1,0,0,1,1,.48l.7.66-.73.61ZM136.26,497l-.21-.21-.72-.69,1-.72a3.32,3.32,0,0,1,.87-.39,1,1,0,0,1,1,.48l.73.69-1,.71a3.53,3.53,0,0,1-.83.38l-1.84,7-6.1-3.71Zm-2.8,24.14.61-4.22,5.5,3.65Zm8.42-62.51a2.85,2.85,0,0,1-.15.81,1,1,0,0,1-.93.55l-1,.2v-1l0-.21a2.29,2.29,0,0,1,.15-.81,1,1,0,0,1,.92-.55l1-.19v1Zm3.72-66.29.1,4-3.36-2.58ZM142.66,441a3.28,3.28,0,0,1,.5-3.06,3.33,3.33,0,0,1,3-.66l.6.1.11,4.11-4.12.1Zm4.54,60.13.2.93c.11.37.25.83-.12,1.18a3.07,3.07,0,0,1-.69.46l-1.05.59-.43-2.08Zm-1.35,46.33-.56-6,6.27,1.68Zm3.8-16.06-3-2,.24-.55a2.41,2.41,0,0,1,4.38-.88l.42.42Zm.38-12.11-1.4,1,.86-5.53.81.27c.68.23,1.59.63,1.73,1.51S151.16,518.47,150,519.29Zm7.76-35.56-3.14-2.08,1.12-1.68,3.14,2.08Zm9.55,48.83c-.09.15-.19.31-.28.48l-.52,1-.69-.87-.38-.47a6.44,6.44,0,0,1-.91-1.25c-.25-.51.08-1,.35-1.34a1.84,1.84,0,0,0,.17-.25l.48-.81,1,1a6.89,6.89,0,0,1,1,1.13C167.92,531.64,167.62,532.11,167.34,532.56Zm3-32.25-1.19-3.79,3.25.69Zm7.5,66.71-.25.93-.88-.34-1.35-.81.58-2.17,1.06.69a2.8,2.8,0,0,1,.76.57A1,1,0,0,1,177.87,567Zm5.39-53,3,4.62-1.9,1.32-3.45-4.46Zm2.64,10.76a3.77,3.77,0,0,1-.57.76.8.8,0,0,1-.54.21,2,2,0,0,1-.6-.14l-.93-.25.55-1.22.6-1,2.18.58Zm22.6-.16a3.55,3.55,0,0,1-.57.77.78.78,0,0,1-.55.21,1.65,1.65,0,0,1-.59-.14l-1-.26.53-1.11a3.77,3.77,0,0,1,.57-.76,1,1,0,0,1,1.14-.07l1,.25Zm4,35.64-2.14-3.66,1.86-1.07,2.13,3.66Z"/></svg>